<svg id="Layer_1" data-name="Layer 1" xmlns="http://www.w3.org/2000/svg" xmlns:xlink="http://www.w3.org/1999/xlink" viewBox="0 0 117.35 117.08"><defs><style>.cls-1{fill:url(#linear-gradient);}.cls-2{fill:url(#linear-gradient-2);}.cls-3{fill:none;}.cls-4{fill:#ad69e2;}</style><linearGradient id="linear-gradient" x1="495.6" y1="367.59" x2="559.37" y2="367.59" gradientUnits="userSpaceOnUse"><stop offset="0" stop-color="#d088ff"/><stop offset="1" stop-color="#bf77f7"/></linearGradient><linearGradient id="linear-gradient-2" x1="507" y1="400.26" x2="460.35" y2="400.26" xlink:href="#linear-gradient"/></defs><title>DC_icon2</title><path class="cls-1" d="M478.94,325.38a3.66,3.66,0,0,0-3.66,3.66v70.3a10.45,10.45,0,0,0,10.45,10.45h7.57a1.76,1.76,0,0,0,1.76-1.76V344.92a1.83,1.83,0,0,1,1.83-1.83h43.27a1.83,1.83,0,0,1,1.83,1.83v45.34a1.83,1.83,0,0,1-1.83,1.83H526.76v17.71H556a3.66,3.66,0,0,0,3.66-3.66V329a3.66,3.66,0,0,0-3.66-3.66Z" transform="translate(-442.35 -325.38)"/><path class="cls-2" d="M508.74,358a1.76,1.76,0,0,0-1.76,1.76v63.11a1.83,1.83,0,0,1-1.83,1.83H461.89a1.83,1.83,0,0,1-1.83-1.83V377.59a1.83,1.83,0,0,1,1.83-1.83h13.39V358H446a3.66,3.66,0,0,0-3.66,3.66v77.1a3.66,3.66,0,0,0,3.66,3.66h77.1a3.66,3.66,0,0,0,3.66-3.66V368.5A10.45,10.45,0,0,0,516.31,358Z" transform="translate(-442.35 -325.38)"/><line class="cls-3" x1="52.71" y1="84.42" x2="52.71" y2="66.71"/><rect class="cls-4" x="84.42" y="66.71" width="2.61" height="17.71"/><rect class="cls-4" x="30.32" y="32.67" width="2.61" height="17.71"/></svg>